<svg xmlns="http://www.w3.org/2000/svg" xmlns:xlink="http://www.w3.org/1999/xlink" contentStyleType="text/css" data-diagram-type="SEQUENCE" height="584px" preserveAspectRatio="none" style="width:531px;height:584px;background:#FFFFFF;" version="1.1" viewBox="0 0 531 584" width="531px" zoomAndPan="magnify"><title>Diagrama de Sequ&#234;ncia: Calcular Valor e Tempo</title><defs/><g><text fill="#000000" font-family="sans-serif" font-size="14" font-weight="bold" lengthAdjust="spacing" textLength="322.1094" x="105.6206" y="29.5332">Diagrama de Sequ&#234;ncia: Calcular Valor e Tempo</text><g><title>Sistema</title><rect fill="#FFFFFF" height="163.2422" style="stroke:#181818;stroke-width:1;" width="10" x="298.209" y="215.2734"/></g><rect fill="none" height="211.9453" style="stroke:#000000;stroke-width:1.5;" width="514.3506" x="10" y="174.5703"/><rect fill="none" height="85.0547" style="stroke:#000000;stroke-width:1.5;" width="335.4951" x="10" y="400.5156"/><g><title>Funcionario</title><rect fill="#000000" fill-opacity="0.00000" height="381.3516" width="8" x="55.5757" y="121.2188"/><line style="stroke:#181818;stroke-width:0.5;stroke-dasharray:5.0,5.0;" x1="59" x2="59" y1="121.2188" y2="502.5703"/></g><g><title>Sistema</title><rect fill="#000000" fill-opacity="0.00000" height="381.3516" width="8" x="299.209" y="121.2188"/><line style="stroke:#181818;stroke-width:0.5;stroke-dasharray:5.0,5.0;" x1="302.9229" x2="302.9229" y1="121.2188" y2="502.5703"/></g><g class="participant participant-head" data-participant="Funcionario"><text fill="#000000" font-family="sans-serif" font-size="14" lengthAdjust="spacing" textLength="73.1514" x="20" y="118.1426">Funcionario</text><ellipse cx="59.5757" cy="52.1094" fill="#E2E2F0" rx="8" ry="8" style="stroke:#181818;stroke-width:0.5;"/><path d="M59.5757,60.1094 L59.5757,87.1094 M46.5757,68.1094 L72.5757,68.1094 M59.5757,87.1094 L46.5757,102.1094 M59.5757,87.1094 L72.5757,102.1094" fill="none" style="stroke:#181818;stroke-width:0.5;"/></g><g class="participant participant-tail" data-participant="Funcionario"><text fill="#000000" font-family="sans-serif" font-size="14" lengthAdjust="spacing" textLength="73.1514" x="20" y="516.1035">Funcionario</text><ellipse cx="59.5757" cy="527.6797" fill="#E2E2F0" rx="8" ry="8" style="stroke:#181818;stroke-width:0.5;"/><path d="M59.5757,535.6797 L59.5757,562.6797 M46.5757,543.6797 L72.5757,543.6797 M59.5757,562.6797 L46.5757,577.6797 M59.5757,562.6797 L72.5757,577.6797" fill="none" style="stroke:#181818;stroke-width:0.5;"/></g><g class="participant participant-head" data-participant="Sistema"><rect fill="#E2E2F0" height="31.6094" rx="2.5" ry="2.5" style="stroke:#181818;stroke-width:0.5;" width="64.5723" x="270.9229" y="88.6094"/><text fill="#000000" font-family="sans-serif" font-size="14" lengthAdjust="spacing" textLength="50.5723" x="277.9229" y="110.1426">Sistema</text></g><g class="participant participant-tail" data-participant="Sistema"><rect fill="#E2E2F0" height="31.6094" rx="2.5" ry="2.5" style="stroke:#181818;stroke-width:0.5;" width="64.5723" x="270.9229" y="501.5703"/><text fill="#000000" font-family="sans-serif" font-size="14" lengthAdjust="spacing" textLength="50.5723" x="277.9229" y="523.1035">Sistema</text></g><g><title>Sistema</title><rect fill="#FFFFFF" height="163.2422" style="stroke:#181818;stroke-width:1;" width="10" x="298.209" y="215.2734"/></g><path d="M64,136.2188 L64,162.2188 L204,162.2188 L204,146.2188 L194,136.2188 L64,136.2188" fill="#FEFFDD" style="stroke:#181818;stroke-width:0.5;"/><path d="M194,136.2188 L194,146.2188 L204,146.2188 L194,136.2188" fill="#FEFFDD" style="stroke:#181818;stroke-width:0.5;"/><text fill="#000000" font-family="sans-serif" font-size="13" lengthAdjust="spacing" textLength="119.7739" x="70" y="154.7139">Clica em "Continuar"</text><path d="M10,174.5703 L70.1709,174.5703 L70.1709,182.9219 L60.1709,192.9219 L10,192.9219 L10,174.5703" fill="#EEEEEE" style="stroke:#000000;stroke-width:1.5;"/><rect fill="none" height="211.9453" style="stroke:#000000;stroke-width:1.5;" width="514.3506" x="10" y="174.5703"/><text fill="#000000" font-family="sans-serif" font-size="13" font-weight="bold" lengthAdjust="spacing" textLength="15.1709" x="25" y="189.0654">alt</text><text fill="#000000" font-family="sans-serif" font-size="11" font-weight="bold" lengthAdjust="spacing" textLength="116.7622" x="85.1709" y="187.9893">[quantidadePeca &gt;= 1]</text><g class="message" data-participant-1="Funcionario" data-participant-2="Sistema"><polygon fill="#181818" points="286.209,211.2734,296.209,215.2734,286.209,219.2734,290.209,215.2734" style="stroke:#181818;stroke-width:1;"/><line style="stroke:#181818;stroke-width:1;" x1="59.5757" x2="292.209" y1="215.2734" y2="215.2734"/><text fill="#000000" font-family="sans-serif" font-size="13" lengthAdjust="spacing" textLength="144.5425" x="66.5757" y="210.417">ContinuarPedido(pedido)</text></g><g class="message" data-participant-1="Sistema" data-participant-2="Sistema"><line style="stroke:#181818;stroke-width:1;" x1="308.209" x2="350.209" y1="245.625" y2="245.625"/><line style="stroke:#181818;stroke-width:1;" x1="350.209" x2="350.209" y1="245.625" y2="258.625"/><line style="stroke:#181818;stroke-width:1;" x1="309.209" x2="350.209" y1="258.625" y2="258.625"/><polygon fill="#181818" points="319.209,254.625,309.209,258.625,319.209,262.625,315.209,258.625" style="stroke:#181818;stroke-width:1;"/><text fill="#000000" font-family="sans-serif" font-size="13" lengthAdjust="spacing" textLength="121.3926" x="315.209" y="240.7686">calcularTotal(pedido)</text></g><g class="message" data-participant-1="Sistema" data-participant-2="Sistema"><line style="stroke:#181818;stroke-width:1;" x1="308.209" x2="350.209" y1="288.9766" y2="288.9766"/><line style="stroke:#181818;stroke-width:1;" x1="350.209" x2="350.209" y1="288.9766" y2="301.9766"/><line style="stroke:#181818;stroke-width:1;" x1="309.209" x2="350.209" y1="301.9766" y2="301.9766"/><polygon fill="#181818" points="319.209,297.9766,309.209,301.9766,319.209,305.9766,315.209,301.9766" style="stroke:#181818;stroke-width:1;"/><text fill="#000000" font-family="sans-serif" font-size="13" lengthAdjust="spacing" textLength="187.1416" x="315.209" y="284.1201">calcularTempoEstimado(pedido)</text></g><g class="message" data-participant-1="Sistema" data-participant-2="Funcionario"><polygon fill="#181818" points="70.5757,328.3281,60.5757,332.3281,70.5757,336.3281,66.5757,332.3281" style="stroke:#181818;stroke-width:1;"/><line style="stroke:#181818;stroke-width:1;stroke-dasharray:2.0,2.0;" x1="64.5757" x2="297.209" y1="332.3281" y2="332.3281"/><text fill="#000000" font-family="sans-serif" font-size="13" lengthAdjust="spacing" textLength="206.6733" x="76.5757" y="327.4717">dadosPedido(total, tempoEstimado)</text></g><line style="stroke:#000000;stroke-width:1;stroke-dasharray:2.0,2.0;" x1="10" x2="524.3506" y1="341.3281" y2="341.3281"/><text fill="#000000" font-family="sans-serif" font-size="11" font-weight="bold" lengthAdjust="spacing" textLength="110.3384" x="15" y="352.7471">[quantidadePeca &lt; 1]</text><g class="message" data-participant-1="Sistema" data-participant-2="Funcionario"><polygon fill="#181818" points="70.5757,374.5156,60.5757,378.5156,70.5757,382.5156,66.5757,378.5156" style="stroke:#181818;stroke-width:1;"/><line style="stroke:#181818;stroke-width:1;stroke-dasharray:2.0,2.0;" x1="64.5757" x2="302.209" y1="378.5156" y2="378.5156"/><text fill="#000000" font-family="sans-serif" font-size="13" lengthAdjust="spacing" textLength="214.6333" x="76.5757" y="373.6592">mensagemNenhumaPecaAdicionada</text></g><path d="M10,400.5156 L70.1709,400.5156 L70.1709,408.8672 L60.1709,418.8672 L10,418.8672 L10,400.5156" fill="#EEEEEE" style="stroke:#000000;stroke-width:1.5;"/><rect fill="none" height="85.0547" style="stroke:#000000;stroke-width:1.5;" width="335.4951" x="10" y="400.5156"/><text fill="#000000" font-family="sans-serif" font-size="13" font-weight="bold" lengthAdjust="spacing" textLength="15.1709" x="25" y="415.0107">alt</text><text fill="#000000" font-family="sans-serif" font-size="11" font-weight="bold" lengthAdjust="spacing" textLength="138.7407" x="85.1709" y="413.9346">[cliente desiste do pedido]</text><path d="M64,423.8672 L64,449.8672 L217,449.8672 L217,433.8672 L207,423.8672 L64,423.8672" fill="#FEFFDD" style="stroke:#181818;stroke-width:0.5;"/><path d="M207,423.8672 L207,433.8672 L217,433.8672 L207,423.8672" fill="#FEFFDD" style="stroke:#181818;stroke-width:0.5;"/><text fill="#000000" font-family="sans-serif" font-size="13" lengthAdjust="spacing" textLength="132.0566" x="70" y="442.3623">Clica em "Limpar tudo"</text><g class="message" data-participant-1="Funcionario" data-participant-2="Sistema"><polygon fill="#181818" points="291.209,473.5703,301.209,477.5703,291.209,481.5703,295.209,477.5703" style="stroke:#181818;stroke-width:1;"/><line style="stroke:#181818;stroke-width:1;" x1="59.5757" x2="297.209" y1="477.5703" y2="477.5703"/><text fill="#000000" font-family="sans-serif" font-size="13" lengthAdjust="spacing" textLength="88.8735" x="66.5757" y="472.7139">LimparPedido()</text></g><!--SRC=[ZP7BJWCn34Nt-GghAqQY2xOLZ8HAMI5KgHLxAp5JItbC4uUFuZVuCJ8l59vY5KM-lZxN5XPBSCVOHNG8Xk10v_pswZNZ1hPeTROOuGbjY41m9DS7fL1B-TxdeWeU8mVLOnJMtACNE70ISgYK3q8GkJi9XETFygrbZK0ELjlWXNt6k5Ba3GmjnTyAd7FnOeE6zbIqxGrSgSfYtSvZ2kLYiIV39bpquzCCbFo21M41cj-gLSy1Zq7GVZJ-eHloxvAmmshGeb-t5U062dj8CvCC0ov1wlv6ARA9lYQzBa5_SNJa4tRa7icViiD1Vcjuh1jKXhubBYjLqpgrPVAbOYWDDJ019ln_NUc1NRamI3QXkjFFvvYqS-vcH7W7]--></g></svg>