<?xml version="1.0" encoding="us-ascii" standalone="no"?><svg xmlns="http://www.w3.org/2000/svg" xmlns:xlink="http://www.w3.org/1999/xlink" contentStyleType="text/css" height="541px" preserveAspectRatio="none" style="width:452px;height:541px;background:#FFFFFF;" version="1.1" viewBox="0 0 452 541" width="452px" zoomAndPan="magnify"><defs/><g><text fill="#000000" font-family="sans-serif" font-size="14" font-weight="bold" lengthAdjust="spacing" textLength="308" x="73.25" y="29.5332">Diagrama de Sequ&#234;ncia: Calcular Valor Total</text><rect fill="#FFFFFF" height="119.8906" style="stroke:#181818;stroke-width:1.0;" width="10" x="297.5" y="215.2734"/><rect fill="none" height="168.5938" style="stroke:#000000;stroke-width:1.5;" width="435.5" x="10" y="174.5703"/><rect fill="none" height="85.0547" style="stroke:#000000;stroke-width:1.5;" width="334.5" x="10" y="357.1641"/><line style="stroke:#181818;stroke-width:0.5;stroke-dasharray:5.0,5.0;" x1="60" x2="60" y1="121.2188" y2="459.2188"/><line style="stroke:#181818;stroke-width:0.5;stroke-dasharray:5.0,5.0;" x1="302.5" x2="302.5" y1="121.2188" y2="459.2188"/><text fill="#000000" font-family="sans-serif" font-size="14" lengthAdjust="spacing" textLength="75" x="20" y="118.1426">Funcionario</text><ellipse cx="60.5" cy="52.1094" fill="#E2E2F0" rx="8" ry="8" style="stroke:#181818;stroke-width:0.5;"/><path d="M60.5,60.1094 L60.5,87.1094 M47.5,68.1094 L73.5,68.1094 M60.5,87.1094 L47.5,102.1094 M60.5,87.1094 L73.5,102.1094 " fill="none" style="stroke:#181818;stroke-width:0.5;"/><text fill="#000000" font-family="sans-serif" font-size="14" lengthAdjust="spacing" textLength="75" x="20" y="472.752">Funcionario</text><ellipse cx="60.5" cy="484.3281" fill="#E2E2F0" rx="8" ry="8" style="stroke:#181818;stroke-width:0.5;"/><path d="M60.5,492.3281 L60.5,519.3281 M47.5,500.3281 L73.5,500.3281 M60.5,519.3281 L47.5,534.3281 M60.5,519.3281 L73.5,534.3281 " fill="none" style="stroke:#181818;stroke-width:0.5;"/><rect fill="#E2E2F0" height="31.6094" rx="2.5" ry="2.5" style="stroke:#181818;stroke-width:0.5;" width="64" x="270.5" y="88.6094"/><text fill="#000000" font-family="sans-serif" font-size="14" lengthAdjust="spacing" textLength="50" x="277.5" y="110.1426">Sistema</text><rect fill="#E2E2F0" height="31.6094" rx="2.5" ry="2.5" style="stroke:#181818;stroke-width:0.5;" width="64" x="270.5" y="458.2188"/><text fill="#000000" font-family="sans-serif" font-size="14" lengthAdjust="spacing" textLength="50" x="277.5" y="479.752">Sistema</text><rect fill="#FFFFFF" height="119.8906" style="stroke:#181818;stroke-width:1.0;" width="10" x="297.5" y="215.2734"/><path d="M65,136.2188 L65,162.2188 L179,162.2188 L179,146.2188 L169,136.2188 L65,136.2188 " fill="#FEFFDD" style="stroke:#181818;stroke-width:0.5;"/><path d="M169,136.2188 L169,146.2188 L179,146.2188 L169,136.2188 " fill="#FEFFDD" style="stroke:#181818;stroke-width:0.5;"/><text fill="#000000" font-family="sans-serif" font-size="13" lengthAdjust="spacing" textLength="93" x="71" y="154.7139">Clica em "Total"</text><path d="M10,174.5703 L71,174.5703 L71,182.9219 L61,192.9219 L10,192.9219 L10,174.5703 " fill="#EEEEEE" style="stroke:#000000;stroke-width:1.5;"/><rect fill="none" height="168.5938" style="stroke:#000000;stroke-width:1.5;" width="435.5" x="10" y="174.5703"/><text fill="#000000" font-family="sans-serif" font-size="13" font-weight="bold" lengthAdjust="spacing" textLength="16" x="25" y="189.0654">alt</text><text fill="#000000" font-family="sans-serif" font-size="11" font-weight="bold" lengthAdjust="spacing" textLength="119" x="86" y="187.9893">[quantidadePeca &gt;= 1]</text><polygon fill="#181818" points="285.5,211.2734,295.5,215.2734,285.5,219.2734,289.5,215.2734" style="stroke:#181818;stroke-width:1.0;"/><line style="stroke:#181818;stroke-width:1.0;" x1="60.5" x2="291.5" y1="215.2734" y2="215.2734"/><text fill="#000000" font-family="sans-serif" font-size="13" lengthAdjust="spacing" textLength="141" x="67.5" y="210.417">ContinuarPedido(pedido)</text><line style="stroke:#181818;stroke-width:1.0;" x1="307.5" x2="349.5" y1="245.625" y2="245.625"/><line style="stroke:#181818;stroke-width:1.0;" x1="349.5" x2="349.5" y1="245.625" y2="258.625"/><line style="stroke:#181818;stroke-width:1.0;" x1="308.5" x2="349.5" y1="258.625" y2="258.625"/><polygon fill="#181818" points="318.5,254.625,308.5,258.625,318.5,262.625,314.5,258.625" style="stroke:#181818;stroke-width:1.0;"/><text fill="#000000" font-family="sans-serif" font-size="13" lengthAdjust="spacing" textLength="119" x="314.5" y="240.7686">calcularTotal(pedido)</text><polygon fill="#181818" points="71.5,284.9766,61.5,288.9766,71.5,292.9766,67.5,288.9766" style="stroke:#181818;stroke-width:1.0;"/><line style="stroke:#181818;stroke-width:1.0;stroke-dasharray:2.0,2.0;" x1="65.5" x2="296.5" y1="288.9766" y2="288.9766"/><text fill="#000000" font-family="sans-serif" font-size="13" lengthAdjust="spacing" textLength="207" x="77.5" y="284.1201">dadosPedido(total, tempoEstimado)</text><line style="stroke:#000000;stroke-width:1.0;stroke-dasharray:2.0,2.0;" x1="10" x2="445.5" y1="297.9766" y2="297.9766"/><text fill="#000000" font-family="sans-serif" font-size="11" font-weight="bold" lengthAdjust="spacing" textLength="113" x="15" y="309.3955">[quantidadePeca &lt; 1]</text><polygon fill="#181818" points="71.5,331.1641,61.5,335.1641,71.5,339.1641,67.5,335.1641" style="stroke:#181818;stroke-width:1.0;"/><line style="stroke:#181818;stroke-width:1.0;stroke-dasharray:2.0,2.0;" x1="65.5" x2="301.5" y1="335.1641" y2="335.1641"/><text fill="#000000" font-family="sans-serif" font-size="13" lengthAdjust="spacing" textLength="213" x="77.5" y="330.3076">mensagemNenhumaPecaAdicionada</text><path d="M10,357.1641 L71,357.1641 L71,365.5156 L61,375.5156 L10,375.5156 L10,357.1641 " fill="#EEEEEE" style="stroke:#000000;stroke-width:1.5;"/><rect fill="none" height="85.0547" style="stroke:#000000;stroke-width:1.5;" width="334.5" x="10" y="357.1641"/><text fill="#000000" font-family="sans-serif" font-size="13" font-weight="bold" lengthAdjust="spacing" textLength="16" x="25" y="371.6592">alt</text><text fill="#000000" font-family="sans-serif" font-size="11" font-weight="bold" lengthAdjust="spacing" textLength="148" x="86" y="370.583">[cliente desiste do pedido]</text><path d="M65,380.5156 L65,406.5156 L219,406.5156 L219,390.5156 L209,380.5156 L65,380.5156 " fill="#FEFFDD" style="stroke:#181818;stroke-width:0.5;"/><path d="M209,380.5156 L209,390.5156 L219,390.5156 L209,380.5156 " fill="#FEFFDD" style="stroke:#181818;stroke-width:0.5;"/><text fill="#000000" font-family="sans-serif" font-size="13" lengthAdjust="spacing" textLength="133" x="71" y="399.0107">Clica em "Limpar tudo"</text><polygon fill="#181818" points="290.5,430.2188,300.5,434.2188,290.5,438.2188,294.5,434.2188" style="stroke:#181818;stroke-width:1.0;"/><line style="stroke:#181818;stroke-width:1.0;" x1="60.5" x2="296.5" y1="434.2188" y2="434.2188"/><text fill="#000000" font-family="sans-serif" font-size="13" lengthAdjust="spacing" textLength="87" x="67.5" y="429.3623">LimparPedido()</text><!--SRC=[ZP5DJWCn38NtEONL5PNeWcq58w5ILWXLAc9l9QQrb9zfud0ehi75S6QcQFYJM5cHtxC_lmYB9xXZF6GC28vWJwVw_XOjunesw6trcE4PVShmb0IzCMX57_TLDIbYvcHwpCAMUum2Uov20Os9IGWo7uu2wUMBVEFP8b20nJ1nOIWwQ7ATxGLELUUmGqSxKbrt0rTcPbzrqmhbIogC5VEE7BjqqGzbsGZv5NNz6MQgCwkTJXi8FerdtQgRBLo3igGoxP1ck0ILzMbRX0Cseo5Vw3lvjOB_CJ5GB7YWy4ZnM0Cs-QtZeU_GEFfnWKPandYiPuhQSLHQ3ro24VzVYJzmqDy2gIxDSlyztb4xtRqS43u0]--></g></svg>