<svg xmlns="http://www.w3.org/2000/svg" xmlns:xlink="http://www.w3.org/1999/xlink" contentStyleType="text/css" data-diagram-type="SEQUENCE" height="513px" preserveAspectRatio="none" style="width:474px;height:513px;background:#FFFFFF;" version="1.1" viewBox="0 0 474 513" width="474px" zoomAndPan="magnify"><title>Diagrama de Sequ&#234;ncia: Confirmar Pedido e Cancelar Pedido</title><defs/><g><text fill="#000000" font-family="sans-serif" font-size="14" font-weight="bold" lengthAdjust="spacing" textLength="409.2266" x="33.9011" y="29.5332">Diagrama de Sequ&#234;ncia: Confirmar Pedido e Cancelar Pedido</text><rect fill="none" height="109.4063" style="stroke:#000000;stroke-width:1.5;" width="458.0288" x="10" y="168.5703"/><rect fill="none" height="122.4063" style="stroke:#000000;stroke-width:1.5;" width="331.019" x="10" y="291.9766"/><g><title>Funcionario</title><rect fill="#000000" fill-opacity="0.00000" height="310.1641" width="8" x="55.5757" y="121.2188"/><line style="stroke:#181818;stroke-width:0.5;stroke-dasharray:5.0,5.0;" x1="59" x2="59" y1="121.2188" y2="431.3828"/></g><g><title>Sistema</title><rect fill="#000000" fill-opacity="0.00000" height="310.1641" width="8" x="246.4746" y="121.2188"/><line style="stroke:#181818;stroke-width:0.5;stroke-dasharray:5.0,5.0;" x1="250.1885" x2="250.1885" y1="121.2188" y2="431.3828"/></g><g><title>BancoDeDados</title><rect fill="#000000" fill-opacity="0.00000" height="310.1641" width="8" x="401.998" y="121.2188"/><line style="stroke:#181818;stroke-width:0.5;stroke-dasharray:5.0,5.0;" x1="405.9673" x2="405.9673" y1="121.2188" y2="431.3828"/></g><g class="participant participant-head" data-participant="Funcionario"><text fill="#000000" font-family="sans-serif" font-size="14" lengthAdjust="spacing" textLength="73.1514" x="20" y="118.1426">Funcionario</text><ellipse cx="59.5757" cy="52.1094" fill="#E2E2F0" rx="8" ry="8" style="stroke:#181818;stroke-width:0.5;"/><path d="M59.5757,60.1094 L59.5757,87.1094 M46.5757,68.1094 L72.5757,68.1094 M59.5757,87.1094 L46.5757,102.1094 M59.5757,87.1094 L72.5757,102.1094" fill="none" style="stroke:#181818;stroke-width:0.5;"/></g><g class="participant participant-tail" data-participant="Funcionario"><text fill="#000000" font-family="sans-serif" font-size="14" lengthAdjust="spacing" textLength="73.1514" x="20" y="444.916">Funcionario</text><ellipse cx="59.5757" cy="456.4922" fill="#E2E2F0" rx="8" ry="8" style="stroke:#181818;stroke-width:0.5;"/><path d="M59.5757,464.4922 L59.5757,491.4922 M46.5757,472.4922 L72.5757,472.4922 M59.5757,491.4922 L46.5757,506.4922 M59.5757,491.4922 L72.5757,506.4922" fill="none" style="stroke:#181818;stroke-width:0.5;"/></g><g class="participant participant-head" data-participant="Sistema"><rect fill="#E2E2F0" height="31.6094" rx="2.5" ry="2.5" style="stroke:#181818;stroke-width:0.5;" width="64.5723" x="218.1885" y="88.6094"/><text fill="#000000" font-family="sans-serif" font-size="14" lengthAdjust="spacing" textLength="50.5723" x="225.1885" y="110.1426">Sistema</text></g><g class="participant participant-tail" data-participant="Sistema"><rect fill="#E2E2F0" height="31.6094" rx="2.5" ry="2.5" style="stroke:#181818;stroke-width:0.5;" width="64.5723" x="218.1885" y="430.3828"/><text fill="#000000" font-family="sans-serif" font-size="14" lengthAdjust="spacing" textLength="50.5723" x="225.1885" y="451.916">Sistema</text></g><g class="participant participant-head" data-participant="BancoDeDados"><text fill="#000000" font-family="sans-serif" font-size="14" lengthAdjust="spacing" textLength="98.0615" x="353.9673" y="118.1426">BancoDeDados</text><path d="M387.998,67.6094 C387.998,57.6094 405.998,57.6094 405.998,57.6094 C405.998,57.6094 423.998,57.6094 423.998,67.6094 L423.998,93.6094 C423.998,103.6094 405.998,103.6094 405.998,103.6094 C405.998,103.6094 387.998,103.6094 387.998,93.6094 L387.998,67.6094" fill="#E2E2F0" style="stroke:#181818;stroke-width:1.5;"/><path d="M387.998,67.6094 C387.998,77.6094 405.998,77.6094 405.998,77.6094 C405.998,77.6094 423.998,77.6094 423.998,67.6094" fill="none" style="stroke:#181818;stroke-width:1.5;"/></g><g class="participant participant-tail" data-participant="BancoDeDados"><text fill="#000000" font-family="sans-serif" font-size="14" lengthAdjust="spacing" textLength="98.0615" x="353.9673" y="444.916">BancoDeDados</text><path d="M387.998,457.9922 C387.998,447.9922 405.998,447.9922 405.998,447.9922 C405.998,447.9922 423.998,447.9922 423.998,457.9922 L423.998,483.9922 C423.998,493.9922 405.998,493.9922 405.998,493.9922 C405.998,493.9922 387.998,493.9922 387.998,483.9922 L387.998,457.9922" fill="#E2E2F0" style="stroke:#181818;stroke-width:1.5;"/><path d="M387.998,457.9922 C387.998,467.9922 405.998,467.9922 405.998,467.9922 C405.998,467.9922 423.998,467.9922 423.998,457.9922" fill="none" style="stroke:#181818;stroke-width:1.5;"/></g><g class="message" data-participant-1="Sistema" data-participant-2="Funcionario"><polygon fill="#181818" points="70.5757,149.5703,60.5757,153.5703,70.5757,157.5703,66.5757,153.5703" style="stroke:#181818;stroke-width:1;"/><line style="stroke:#181818;stroke-width:1;" x1="64.5757" x2="249.4746" y1="153.5703" y2="153.5703"/><text fill="#000000" font-family="sans-serif" font-size="13" lengthAdjust="spacing" textLength="166.8989" x="76.5757" y="148.7139">solicitarConfirmacaoPedido()</text></g><path d="M10,168.5703 L70.1709,168.5703 L70.1709,176.9219 L60.1709,186.9219 L10,186.9219 L10,168.5703" fill="#EEEEEE" style="stroke:#000000;stroke-width:1.5;"/><rect fill="none" height="109.4063" style="stroke:#000000;stroke-width:1.5;" width="458.0288" x="10" y="168.5703"/><text fill="#000000" font-family="sans-serif" font-size="13" font-weight="bold" lengthAdjust="spacing" textLength="15.1709" x="25" y="183.0654">alt</text><text fill="#000000" font-family="sans-serif" font-size="11" font-weight="bold" lengthAdjust="spacing" textLength="91.6846" x="85.1709" y="181.9893">[cliente confirma]</text><g class="message" data-participant-1="Funcionario" data-participant-2="Sistema"><polygon fill="#181818" points="238.4746,205.2734,248.4746,209.2734,238.4746,213.2734,242.4746,209.2734" style="stroke:#181818;stroke-width:1;"/><line style="stroke:#181818;stroke-width:1;" x1="59.5757" x2="244.4746" y1="209.2734" y2="209.2734"/><text fill="#000000" font-family="sans-serif" font-size="13" lengthAdjust="spacing" textLength="98.9854" x="66.5757" y="204.417">confirmaPedido()</text></g><g class="message" data-participant-1="Sistema" data-participant-2="BancoDeDados"><polygon fill="#181818" points="393.998,235.625,403.998,239.625,393.998,243.625,397.998,239.625" style="stroke:#181818;stroke-width:1;"/><line style="stroke:#181818;stroke-width:1;" x1="250.4746" x2="399.998" y1="239.625" y2="239.625"/><text fill="#000000" font-family="sans-serif" font-size="13" lengthAdjust="spacing" textLength="131.5234" x="257.4746" y="234.7686">registraPedido(pedido)</text></g><g class="message" data-participant-1="Sistema" data-participant-2="Funcionario"><polygon fill="#181818" points="70.5757,265.9766,60.5757,269.9766,70.5757,273.9766,66.5757,269.9766" style="stroke:#181818;stroke-width:1;"/><line style="stroke:#181818;stroke-width:1;stroke-dasharray:2.0,2.0;" x1="64.5757" x2="249.4746" y1="269.9766" y2="269.9766"/><text fill="#000000" font-family="sans-serif" font-size="13" lengthAdjust="spacing" textLength="162.6016" x="76.5757" y="265.1201">mensagemPedidoRealizado</text></g><path d="M10,291.9766 L70.1709,291.9766 L70.1709,300.3281 L60.1709,310.3281 L10,310.3281 L10,291.9766" fill="#EEEEEE" style="stroke:#000000;stroke-width:1.5;"/><rect fill="none" height="122.4063" style="stroke:#000000;stroke-width:1.5;" width="331.019" x="10" y="291.9766"/><text fill="#000000" font-family="sans-serif" font-size="13" font-weight="bold" lengthAdjust="spacing" textLength="15.1709" x="25" y="306.4717">alt</text><text fill="#000000" font-family="sans-serif" font-size="11" font-weight="bold" lengthAdjust="spacing" textLength="85.5938" x="85.1709" y="305.3955">[cliente cancela]</text><g class="message" data-participant-1="Funcionario" data-participant-2="Sistema"><polygon fill="#181818" points="238.4746,328.6797,248.4746,332.6797,238.4746,336.6797,242.4746,332.6797" style="stroke:#181818;stroke-width:1;"/><line style="stroke:#181818;stroke-width:1;" x1="59.5757" x2="244.4746" y1="332.6797" y2="332.6797"/><text fill="#000000" font-family="sans-serif" font-size="13" lengthAdjust="spacing" textLength="93.9453" x="66.5757" y="327.8232">cancelaPedido()</text></g><g class="message" data-participant-1="Sistema" data-participant-2="Sistema"><line style="stroke:#181818;stroke-width:1;" x1="250.4746" x2="292.4746" y1="363.0313" y2="363.0313"/><line style="stroke:#181818;stroke-width:1;" x1="292.4746" x2="292.4746" y1="363.0313" y2="376.0313"/><line style="stroke:#181818;stroke-width:1;" x1="251.4746" x2="292.4746" y1="376.0313" y2="376.0313"/><polygon fill="#181818" points="261.4746,372.0313,251.4746,376.0313,261.4746,380.0313,257.4746,376.0313" style="stroke:#181818;stroke-width:1;"/><text fill="#000000" font-family="sans-serif" font-size="13" lengthAdjust="spacing" textLength="71.5444" x="257.4746" y="358.1748">limpaPedido</text></g><g class="message" data-participant-1="Sistema" data-participant-2="Funcionario"><polygon fill="#181818" points="70.5757,402.3828,60.5757,406.3828,70.5757,410.3828,66.5757,406.3828" style="stroke:#181818;stroke-width:1;"/><line style="stroke:#181818;stroke-width:1;stroke-dasharray:2.0,2.0;" x1="64.5757" x2="249.4746" y1="406.3828" y2="406.3828"/><text fill="#000000" font-family="sans-serif" font-size="13" lengthAdjust="spacing" textLength="122.1035" x="76.5757" y="401.5264">voltaParaTelaInicial()</text></g><!--SRC=[TP0xJWCn48Pxds9AA7A1BLAG5H9THBZ0ZpsiHl9ZiISK78bhS356xCQiWb9Pyl_wD2eQcKR1L950WUd4x-Vlh-m50nrAVfEQKEd8GK8XfWEovzX_d8FNKkdnR8cIKQMu6LN5ouoiT9AcdE025AzeJ0-MBoEF2AKvjygx_IO_K2lHyefwsVSeozpTlGr69H-5ipBvrU0s-Tr-RHswtCDzRuinKEN9X7hnpR_Fd_iABt5kc3WjxcT6b4_hSPp35TrogrjmY_gVhJkYf7dLRx5ybAWuekB5gfwodGtHkWpb1m00]--></g></svg>