<svg xmlns="http://www.w3.org/2000/svg" xmlns:xlink="http://www.w3.org/1999/xlink" contentStyleType="text/css" data-diagram-type="SEQUENCE" height="470px" preserveAspectRatio="none" style="width:536px;height:470px;background:#FFFFFF;" version="1.1" viewBox="0 0 536 470" width="536px" zoomAndPan="magnify"><title>Diagrama de Sequ&#234;ncia: Fazer Login</title><defs/><g><text fill="#000000" font-family="sans-serif" font-size="14" font-weight="bold" lengthAdjust="spacing" textLength="245.0615" x="147.0354" y="29.5332">Diagrama de Sequ&#234;ncia: Fazer Login</text><g><title>Sistema</title><rect fill="#FFFFFF" height="225.4609" style="stroke:#181818;stroke-width:1;" width="10" x="266.46" y="153.5703"/></g><rect fill="none" height="79.0547" style="stroke:#000000;stroke-width:1.5;" width="520.1323" x="10" y="198.9219"/><rect fill="none" height="79.0547" style="stroke:#000000;stroke-width:1.5;" width="520.1323" x="10" y="291.9766"/><g><title>Funcionario</title><rect fill="#000000" fill-opacity="0.00000" height="266.8125" width="8" x="55.5757" y="121.2188"/><line style="stroke:#181818;stroke-width:0.5;stroke-dasharray:5.0,5.0;" x1="59" x2="59" y1="121.2188" y2="388.0313"/></g><g><title>Sistema</title><rect fill="#000000" fill-opacity="0.00000" height="266.8125" width="8" x="267.46" y="121.2188"/><line style="stroke:#181818;stroke-width:0.5;stroke-dasharray:5.0,5.0;" x1="271.1738" x2="271.1738" y1="121.2188" y2="388.0313"/></g><g><title>BancoDeDados</title><rect fill="#000000" fill-opacity="0.00000" height="266.8125" width="8" x="464.1016" y="121.2188"/><line style="stroke:#181818;stroke-width:0.5;stroke-dasharray:5.0,5.0;" x1="468.0708" x2="468.0708" y1="121.2188" y2="388.0313"/></g><g class="participant participant-head" data-participant="Funcionario"><text fill="#000000" font-family="sans-serif" font-size="14" lengthAdjust="spacing" textLength="73.1514" x="20" y="118.1426">Funcionario</text><ellipse cx="59.5757" cy="52.1094" fill="#E2E2F0" rx="8" ry="8" style="stroke:#181818;stroke-width:0.5;"/><path d="M59.5757,60.1094 L59.5757,87.1094 M46.5757,68.1094 L72.5757,68.1094 M59.5757,87.1094 L46.5757,102.1094 M59.5757,87.1094 L72.5757,102.1094" fill="none" style="stroke:#181818;stroke-width:0.5;"/></g><g class="participant participant-tail" data-participant="Funcionario"><text fill="#000000" font-family="sans-serif" font-size="14" lengthAdjust="spacing" textLength="73.1514" x="20" y="401.5645">Funcionario</text><ellipse cx="59.5757" cy="413.1406" fill="#E2E2F0" rx="8" ry="8" style="stroke:#181818;stroke-width:0.5;"/><path d="M59.5757,421.1406 L59.5757,448.1406 M46.5757,429.1406 L72.5757,429.1406 M59.5757,448.1406 L46.5757,463.1406 M59.5757,448.1406 L72.5757,463.1406" fill="none" style="stroke:#181818;stroke-width:0.5;"/></g><g class="participant participant-head" data-participant="Sistema"><rect fill="#E2E2F0" height="31.6094" rx="2.5" ry="2.5" style="stroke:#181818;stroke-width:0.5;" width="64.5723" x="239.1738" y="88.6094"/><text fill="#000000" font-family="sans-serif" font-size="14" lengthAdjust="spacing" textLength="50.5723" x="246.1738" y="110.1426">Sistema</text></g><g class="participant participant-tail" data-participant="Sistema"><rect fill="#E2E2F0" height="31.6094" rx="2.5" ry="2.5" style="stroke:#181818;stroke-width:0.5;" width="64.5723" x="239.1738" y="387.0313"/><text fill="#000000" font-family="sans-serif" font-size="14" lengthAdjust="spacing" textLength="50.5723" x="246.1738" y="408.5645">Sistema</text></g><g class="participant participant-head" data-participant="BancoDeDados"><text fill="#000000" font-family="sans-serif" font-size="14" lengthAdjust="spacing" textLength="98.0615" x="416.0708" y="118.1426">BancoDeDados</text><path d="M450.1016,67.6094 C450.1016,57.6094 468.1016,57.6094 468.1016,57.6094 C468.1016,57.6094 486.1016,57.6094 486.1016,67.6094 L486.1016,93.6094 C486.1016,103.6094 468.1016,103.6094 468.1016,103.6094 C468.1016,103.6094 450.1016,103.6094 450.1016,93.6094 L450.1016,67.6094" fill="#E2E2F0" style="stroke:#181818;stroke-width:1.5;"/><path d="M450.1016,67.6094 C450.1016,77.6094 468.1016,77.6094 468.1016,77.6094 C468.1016,77.6094 486.1016,77.6094 486.1016,67.6094" fill="none" style="stroke:#181818;stroke-width:1.5;"/></g><g class="participant participant-tail" data-participant="BancoDeDados"><text fill="#000000" font-family="sans-serif" font-size="14" lengthAdjust="spacing" textLength="98.0615" x="416.0708" y="401.5645">BancoDeDados</text><path d="M450.1016,414.6406 C450.1016,404.6406 468.1016,404.6406 468.1016,404.6406 C468.1016,404.6406 486.1016,404.6406 486.1016,414.6406 L486.1016,440.6406 C486.1016,450.6406 468.1016,450.6406 468.1016,450.6406 C468.1016,450.6406 450.1016,450.6406 450.1016,440.6406 L450.1016,414.6406" fill="#E2E2F0" style="stroke:#181818;stroke-width:1.5;"/><path d="M450.1016,414.6406 C450.1016,424.6406 468.1016,424.6406 468.1016,424.6406 C468.1016,424.6406 486.1016,424.6406 486.1016,414.6406" fill="none" style="stroke:#181818;stroke-width:1.5;"/></g><g><title>Sistema</title><rect fill="#FFFFFF" height="225.4609" style="stroke:#181818;stroke-width:1;" width="10" x="266.46" y="153.5703"/></g><g class="message" data-participant-1="Funcionario" data-participant-2="Sistema"><polygon fill="#181818" points="254.46,149.5703,264.46,153.5703,254.46,157.5703,258.46,153.5703" style="stroke:#181818;stroke-width:1;"/><line style="stroke:#181818;stroke-width:1;" x1="59.5757" x2="260.46" y1="153.5703" y2="153.5703"/><text fill="#000000" font-family="sans-serif" font-size="13" lengthAdjust="spacing" textLength="187.8843" x="66.5757" y="148.7139">preencherInfos(codFunc, senha)</text></g><g class="message" data-participant-1="Sistema" data-participant-2="BancoDeDados"><polygon fill="#181818" points="456.1016,179.9219,466.1016,183.9219,456.1016,187.9219,460.1016,183.9219" style="stroke:#181818;stroke-width:1;"/><line style="stroke:#181818;stroke-width:1;" x1="276.46" x2="462.1016" y1="183.9219" y2="183.9219"/><text fill="#000000" font-family="sans-serif" font-size="13" lengthAdjust="spacing" textLength="167.6416" x="283.46" y="179.0654">validarInfos(codFunc, senha)</text></g><path d="M10,198.9219 L70.1709,198.9219 L70.1709,207.2734 L60.1709,217.2734 L10,217.2734 L10,198.9219" fill="#EEEEEE" style="stroke:#000000;stroke-width:1.5;"/><rect fill="none" height="79.0547" style="stroke:#000000;stroke-width:1.5;" width="520.1323" x="10" y="198.9219"/><text fill="#000000" font-family="sans-serif" font-size="13" font-weight="bold" lengthAdjust="spacing" textLength="15.1709" x="25" y="213.417">alt</text><text fill="#000000" font-family="sans-serif" font-size="11" font-weight="bold" lengthAdjust="spacing" textLength="81.9038" x="85.1709" y="212.3408">[Dados v&#225;lidos]</text><g class="message" data-participant-1="BancoDeDados" data-participant-2="Sistema"><polygon fill="#181818" points="287.46,235.625,277.46,239.625,287.46,243.625,283.46,239.625" style="stroke:#181818;stroke-width:1;"/><line style="stroke:#181818;stroke-width:1;stroke-dasharray:2.0,2.0;" x1="281.46" x2="467.1016" y1="239.625" y2="239.625"/><text fill="#000000" font-family="sans-serif" font-size="13" lengthAdjust="spacing" textLength="78.0571" x="293.46" y="234.7686">dadosValidos</text></g><g class="message" data-participant-1="Sistema" data-participant-2="Funcionario"><polygon fill="#181818" points="70.5757,265.9766,60.5757,269.9766,70.5757,273.9766,66.5757,269.9766" style="stroke:#181818;stroke-width:1;"/><line style="stroke:#181818;stroke-width:1;" x1="64.5757" x2="265.46" y1="269.9766" y2="269.9766"/><text fill="#000000" font-family="sans-serif" font-size="13" lengthAdjust="spacing" textLength="119.228" x="76.5757" y="265.1201">mostraTelaDeVenda</text></g><path d="M10,291.9766 L70.1709,291.9766 L70.1709,300.3281 L60.1709,310.3281 L10,310.3281 L10,291.9766" fill="#EEEEEE" style="stroke:#000000;stroke-width:1.5;"/><rect fill="none" height="79.0547" style="stroke:#000000;stroke-width:1.5;" width="520.1323" x="10" y="291.9766"/><text fill="#000000" font-family="sans-serif" font-size="13" font-weight="bold" lengthAdjust="spacing" textLength="15.1709" x="25" y="306.4717">alt</text><text fill="#000000" font-family="sans-serif" font-size="11" font-weight="bold" lengthAdjust="spacing" textLength="91.6792" x="85.1709" y="305.3955">[Dados inv&#225;lidos]</text><g class="message" data-participant-1="BancoDeDados" data-participant-2="Sistema"><polygon fill="#181818" points="287.46,328.6797,277.46,332.6797,287.46,336.6797,283.46,332.6797" style="stroke:#181818;stroke-width:1;"/><line style="stroke:#181818;stroke-width:1;stroke-dasharray:2.0,2.0;" x1="281.46" x2="467.1016" y1="332.6797" y2="332.6797"/><text fill="#000000" font-family="sans-serif" font-size="13" lengthAdjust="spacing" textLength="86.728" x="293.46" y="327.8232">dadosInvalidos</text></g><g class="message" data-participant-1="Sistema" data-participant-2="Funcionario"><polygon fill="#181818" points="70.5757,359.0313,60.5757,363.0313,70.5757,367.0313,66.5757,363.0313" style="stroke:#181818;stroke-width:1;"/><line style="stroke:#181818;stroke-width:1;" x1="64.5757" x2="265.46" y1="363.0313" y2="363.0313"/><text fill="#000000" font-family="sans-serif" font-size="13" lengthAdjust="spacing" textLength="153.1943" x="76.5757" y="358.1748">mensagemDadosInvalidos</text></g><!--SRC=[ZOunJWCn44Lxds9AaDWBR942MP4YqGMb_zZ3PgJTyM9FjiXjQBb6BeONeiWK89gnD7xptpUnaSaBXem959ds_7QwV6WGzBJ5cJCzfK7KEGHBcRQd-fKKMPARaKs2p52ZlHJZ2Ix2y8B2z0WDoRD7JCMvvgpRNDcUvioiuSXvfw-ft8KKL-w12kiHzwjH5XZVmgzljsd3UremIiGl8RNuQFH5qd9vhsJjqzvtJQ6uBWxuXcwsfdnFKogMySmZF1zO8rmThKJqVvgTBd-BM0i6dlnFkDe-0G00]--></g></svg>