<svg xmlns="http://www.w3.org/2000/svg" xmlns:xlink="http://www.w3.org/1999/xlink" contentStyleType="text/css" data-diagram-type="SEQUENCE" height="437px" preserveAspectRatio="none" style="width:569px;height:437px;background:#FFFFFF;" version="1.1" viewBox="0 0 569 437" width="569px" zoomAndPan="magnify"><title>Diagrama de Sequ&#234;ncia: Preencher Pedido</title><defs/><g><text fill="#000000" font-family="sans-serif" font-size="14" font-weight="bold" lengthAdjust="spacing" textLength="285.5439" x="143.3901" y="29.5332">Diagrama de Sequ&#234;ncia: Preencher Pedido</text><g><title>Sistema</title><rect fill="#FFFFFF" height="30" style="stroke:#181818;stroke-width:1;" width="10" x="309.8081" y="153.5703"/></g><g><title>Sistema</title><rect fill="#FFFFFF" height="91.0547" style="stroke:#181818;stroke-width:1;" width="10" x="309.8081" y="239.2734"/></g><rect fill="none" height="139.7578" style="stroke:#000000;stroke-width:1.5;" width="553.3242" x="10" y="198.5703"/><g><title>Funcionario</title><rect fill="#000000" fill-opacity="0.00000" height="234.1094" width="8" x="55.5757" y="121.2188"/><line style="stroke:#181818;stroke-width:0.5;stroke-dasharray:5.0,5.0;" x1="59" x2="59" y1="121.2188" y2="355.3281"/></g><g><title>Sistema</title><rect fill="#000000" fill-opacity="0.00000" height="234.1094" width="8" x="310.8081" y="121.2188"/><line style="stroke:#181818;stroke-width:0.5;stroke-dasharray:5.0,5.0;" x1="314.522" x2="314.522" y1="121.2188" y2="355.3281"/></g><g><title>BancoDeDados</title><rect fill="#000000" fill-opacity="0.00000" height="234.1094" width="8" x="497.2935" y="121.2188"/><line style="stroke:#181818;stroke-width:0.5;stroke-dasharray:5.0,5.0;" x1="501.2627" x2="501.2627" y1="121.2188" y2="355.3281"/></g><g class="participant participant-head" data-participant="Funcionario"><text fill="#000000" font-family="sans-serif" font-size="14" lengthAdjust="spacing" textLength="73.1514" x="20" y="118.1426">Funcionario</text><ellipse cx="59.5757" cy="52.1094" fill="#E2E2F0" rx="8" ry="8" style="stroke:#181818;stroke-width:0.5;"/><path d="M59.5757,60.1094 L59.5757,87.1094 M46.5757,68.1094 L72.5757,68.1094 M59.5757,87.1094 L46.5757,102.1094 M59.5757,87.1094 L72.5757,102.1094" fill="none" style="stroke:#181818;stroke-width:0.5;"/></g><g class="participant participant-tail" data-participant="Funcionario"><text fill="#000000" font-family="sans-serif" font-size="14" lengthAdjust="spacing" textLength="73.1514" x="20" y="368.8613">Funcionario</text><ellipse cx="59.5757" cy="380.4375" fill="#E2E2F0" rx="8" ry="8" style="stroke:#181818;stroke-width:0.5;"/><path d="M59.5757,388.4375 L59.5757,415.4375 M46.5757,396.4375 L72.5757,396.4375 M59.5757,415.4375 L46.5757,430.4375 M59.5757,415.4375 L72.5757,430.4375" fill="none" style="stroke:#181818;stroke-width:0.5;"/></g><g class="participant participant-head" data-participant="Sistema"><rect fill="#E2E2F0" height="31.6094" rx="2.5" ry="2.5" style="stroke:#181818;stroke-width:0.5;" width="64.5723" x="282.522" y="88.6094"/><text fill="#000000" font-family="sans-serif" font-size="14" lengthAdjust="spacing" textLength="50.5723" x="289.522" y="110.1426">Sistema</text></g><g class="participant participant-tail" data-participant="Sistema"><rect fill="#E2E2F0" height="31.6094" rx="2.5" ry="2.5" style="stroke:#181818;stroke-width:0.5;" width="64.5723" x="282.522" y="354.3281"/><text fill="#000000" font-family="sans-serif" font-size="14" lengthAdjust="spacing" textLength="50.5723" x="289.522" y="375.8613">Sistema</text></g><g class="participant participant-head" data-participant="BancoDeDados"><text fill="#000000" font-family="sans-serif" font-size="14" lengthAdjust="spacing" textLength="98.0615" x="449.2627" y="118.1426">BancoDeDados</text><path d="M483.2935,67.6094 C483.2935,57.6094 501.2935,57.6094 501.2935,57.6094 C501.2935,57.6094 519.2935,57.6094 519.2935,67.6094 L519.2935,93.6094 C519.2935,103.6094 501.2935,103.6094 501.2935,103.6094 C501.2935,103.6094 483.2935,103.6094 483.2935,93.6094 L483.2935,67.6094" fill="#E2E2F0" style="stroke:#181818;stroke-width:1.5;"/><path d="M483.2935,67.6094 C483.2935,77.6094 501.2935,77.6094 501.2935,77.6094 C501.2935,77.6094 519.2935,77.6094 519.2935,67.6094" fill="none" style="stroke:#181818;stroke-width:1.5;"/></g><g class="participant participant-tail" data-participant="BancoDeDados"><text fill="#000000" font-family="sans-serif" font-size="14" lengthAdjust="spacing" textLength="98.0615" x="449.2627" y="368.8613">BancoDeDados</text><path d="M483.2935,381.9375 C483.2935,371.9375 501.2935,371.9375 501.2935,371.9375 C501.2935,371.9375 519.2935,371.9375 519.2935,381.9375 L519.2935,407.9375 C519.2935,417.9375 501.2935,417.9375 501.2935,417.9375 C501.2935,417.9375 483.2935,417.9375 483.2935,407.9375 L483.2935,381.9375" fill="#E2E2F0" style="stroke:#181818;stroke-width:1.5;"/><path d="M483.2935,381.9375 C483.2935,391.9375 501.2935,391.9375 501.2935,391.9375 C501.2935,391.9375 519.2935,391.9375 519.2935,381.9375" fill="none" style="stroke:#181818;stroke-width:1.5;"/></g><g><title>Sistema</title><rect fill="#FFFFFF" height="30" style="stroke:#181818;stroke-width:1;" width="10" x="309.8081" y="153.5703"/></g><g><title>Sistema</title><rect fill="#FFFFFF" height="91.0547" style="stroke:#181818;stroke-width:1;" width="10" x="309.8081" y="239.2734"/></g><g class="message" data-participant-1="Funcionario" data-participant-2="Sistema"><line style="stroke:#181818;stroke-width:1;" x1="307.8081" x2="297.8081" y1="153.5703" y2="149.5703"/><line style="stroke:#181818;stroke-width:1;" x1="307.8081" x2="297.8081" y1="153.5703" y2="157.5703"/><line style="stroke:#181818;stroke-width:1;" x1="59.5757" x2="308.8081" y1="153.5703" y2="153.5703"/><text fill="#000000" font-family="sans-serif" font-size="13" lengthAdjust="spacing" textLength="231.2324" x="66.5757" y="148.7139">identificarCliente(nomeCliente, telefone)</text></g><path d="M10,198.5703 L82.4346,198.5703 L82.4346,206.9219 L72.4346,216.9219 L10,216.9219 L10,198.5703" fill="#EEEEEE" style="stroke:#000000;stroke-width:1.5;"/><rect fill="none" height="139.7578" style="stroke:#000000;stroke-width:1.5;" width="553.3242" x="10" y="198.5703"/><text fill="#000000" font-family="sans-serif" font-size="13" font-weight="bold" lengthAdjust="spacing" textLength="27.4346" x="25" y="213.0654">loop</text><text fill="#000000" font-family="sans-serif" font-size="11" font-weight="bold" lengthAdjust="spacing" textLength="147.3345" x="97.4346" y="211.9893">[para cada pe&#231;a adicionada]</text><g class="message" data-participant-1="Funcionario" data-participant-2="Sistema"><polygon fill="#181818" points="297.8081,235.2734,307.8081,239.2734,297.8081,243.2734,301.8081,239.2734" style="stroke:#181818;stroke-width:1;"/><line style="stroke:#181818;stroke-width:1;" x1="59.5757" x2="303.8081" y1="239.2734" y2="239.2734"/><text fill="#000000" font-family="sans-serif" font-size="13" lengthAdjust="spacing" textLength="160.4053" x="66.5757" y="234.417">adicionarPeca(tipo, servico)</text></g><g class="message" data-participant-1="Sistema" data-participant-2="BancoDeDados"><polygon fill="#181818" points="489.2935,265.625,499.2935,269.625,489.2935,273.625,493.2935,269.625" style="stroke:#181818;stroke-width:1;"/><line style="stroke:#181818;stroke-width:1;" x1="319.8081" x2="495.2935" y1="269.625" y2="269.625"/><text fill="#000000" font-family="sans-serif" font-size="13" lengthAdjust="spacing" textLength="157.4854" x="326.8081" y="264.7686">verificarPreco(tipo, servico)</text></g><g class="message" data-participant-1="BancoDeDados" data-participant-2="Sistema"><polygon fill="#181818" points="330.8081,295.9766,320.8081,299.9766,330.8081,303.9766,326.8081,299.9766" style="stroke:#181818;stroke-width:1;"/><line style="stroke:#181818;stroke-width:1;stroke-dasharray:2.0,2.0;" x1="324.8081" x2="500.2935" y1="299.9766" y2="299.9766"/><text fill="#000000" font-family="sans-serif" font-size="13" lengthAdjust="spacing" textLength="32.519" x="336.8081" y="295.1201">preco</text></g><g class="message" data-participant-1="Sistema" data-participant-2="Funcionario"><polygon fill="#181818" points="70.5757,326.3281,60.5757,330.3281,70.5757,334.3281,66.5757,330.3281" style="stroke:#181818;stroke-width:1;"/><line style="stroke:#181818;stroke-width:1;" x1="64.5757" x2="313.8081" y1="330.3281" y2="330.3281"/><text fill="#000000" font-family="sans-serif" font-size="13" lengthAdjust="spacing" textLength="148.8271" x="76.5757" y="325.4717">MostrarPrecoPeca(preco)</text></g><!--SRC=[RP11JiCm44NtFiKiMwcvG1PPGCGEgL9FCBL_OQJ4OoRJN0c9Q_HYf27G05rvvFd-xt-xU0TgXL-CUwO4Ek3jVFd8KRYclG4vli9eZoH9G-3eQlHqdlQQsKH3ONE9KZWx7MHmz1mIEnzv03rmZjgYvQH32AjdLTCiufea8RkS9B8zTZBDs6JjiSmxSdGuQSRsIfUH7JSG_bs5JhNGb8efSc8gkBmpSP8PdVXtYfyGtmBR8_B6fUYE1jWeKUzmbxDgrWNh4VPLO_gtg7zDrj9gHIvNySrn5Q-cPntS5hyvs2pUtkkDdC8d]--></g></svg>