<?xml version="1.0" encoding="us-ascii" standalone="no"?><svg xmlns="http://www.w3.org/2000/svg" xmlns:xlink="http://www.w3.org/1999/xlink" contentStyleType="text/css" height="613px" preserveAspectRatio="none" style="width:545px;height:613px;background:#FFFFFF;" version="1.1" viewBox="0 0 545 613" width="545px" zoomAndPan="magnify"><defs/><g><!--class Cliente--><g id="elem_Cliente"><rect codeLine="2" fill="#F1F1F1" height="83.2188" id="Cliente" rx="2.5" ry="2.5" style="stroke:#181818;stroke-width:0.5;" width="120" x="7" y="291.5"/><ellipse cx="41.8" cy="307.5" fill="#ADD1B2" rx="11" ry="11" style="stroke:#181818;stroke-width:1.0;"/><path d="M44.5656,303.375 Q44.7219,303.1563 44.9094,303.0469 Q45.0969,302.9375 45.3156,302.9375 Q45.6906,302.9375 45.925,303.2031 Q46.1594,303.4531 46.1594,304.0625 L46.1594,305.5156 Q46.1594,306.125 45.925,306.3906 Q45.6906,306.6563 45.3156,306.6563 Q44.9719,306.6563 44.7688,306.4531 Q44.5656,306.2656 44.4563,305.75 Q44.4094,305.3906 44.2219,305.2031 Q43.8938,304.8281 43.2844,304.6094 Q42.675,304.3906 42.05,304.3906 Q41.2844,304.3906 40.6438,304.7188 Q40.0188,305.0469 39.5188,305.7969 Q39.0344,306.5469 39.0344,307.5781 L39.0344,308.6719 Q39.0344,309.9063 39.925,310.7344 Q40.8156,311.5469 42.4094,311.5469 Q43.3469,311.5469 44.0031,311.2969 Q44.3938,311.1406 44.8156,310.7031 Q45.0813,310.4375 45.2219,310.3594 Q45.3781,310.2813 45.5813,310.2813 Q45.9094,310.2813 46.1594,310.5469 Q46.425,310.7969 46.425,311.1406 Q46.425,311.4844 46.0813,311.8906 Q45.5813,312.4688 44.7844,312.7969 Q43.7063,313.25 42.4094,313.25 Q40.8938,313.25 39.6906,312.625 Q38.7063,312.125 38.0188,311.0625 Q37.3313,309.9844 37.3313,308.7031 L37.3313,307.5469 Q37.3313,306.2188 37.9406,305.0781 Q38.5656,303.9219 39.6594,303.3125 Q40.7531,302.6875 41.9875,302.6875 Q42.7219,302.6875 43.3625,302.8594 Q44.0188,303.0156 44.5656,303.375 Z " fill="#000000"/><text fill="#000000" font-family="sans-serif" font-size="14" lengthAdjust="spacing" textLength="44" x="60.2" y="313.2285">Cliente</text><line style="stroke:#181818;stroke-width:0.5;" x1="8" x2="126" y1="323.5" y2="323.5"/><rect fill="none" height="6" style="stroke:#C82930;stroke-width:1.0;" width="6" x="15" y="334.8047"/><text fill="#000000" font-family="sans-serif" font-size="14" lengthAdjust="spacing" textLength="78" x="27" y="342.0332">nome: string</text><rect fill="none" height="6" style="stroke:#C82930;stroke-width:1.0;" width="6" x="15" y="352.4141"/><text fill="#000000" font-family="sans-serif" font-size="14" lengthAdjust="spacing" textLength="94" x="27" y="359.6426">telefone: string</text><line style="stroke:#181818;stroke-width:0.5;" x1="8" x2="126" y1="366.7188" y2="366.7188"/></g><!--class Funcionario--><g id="elem_Funcionario"><rect codeLine="7" fill="#F1F1F1" height="118.4375" id="Funcionario" rx="2.5" ry="2.5" style="stroke:#181818;stroke-width:0.5;" width="120" x="162" y="274"/><ellipse cx="182.85" cy="290" fill="#ADD1B2" rx="11" ry="11" style="stroke:#181818;stroke-width:1.0;"/><path d="M185.6156,285.875 Q185.7719,285.6563 185.9594,285.5469 Q186.1469,285.4375 186.3656,285.4375 Q186.7406,285.4375 186.975,285.7031 Q187.2094,285.9531 187.2094,286.5625 L187.2094,288.0156 Q187.2094,288.625 186.975,288.8906 Q186.7406,289.1563 186.3656,289.1563 Q186.0219,289.1563 185.8188,288.9531 Q185.6156,288.7656 185.5063,288.25 Q185.4594,287.8906 185.2719,287.7031 Q184.9438,287.3281 184.3344,287.1094 Q183.725,286.8906 183.1,286.8906 Q182.3344,286.8906 181.6938,287.2188 Q181.0688,287.5469 180.5688,288.2969 Q180.0844,289.0469 180.0844,290.0781 L180.0844,291.1719 Q180.0844,292.4063 180.975,293.2344 Q181.8656,294.0469 183.4594,294.0469 Q184.3969,294.0469 185.0531,293.7969 Q185.4438,293.6406 185.8656,293.2031 Q186.1313,292.9375 186.2719,292.8594 Q186.4281,292.7813 186.6313,292.7813 Q186.9594,292.7813 187.2094,293.0469 Q187.475,293.2969 187.475,293.6406 Q187.475,293.9844 187.1313,294.3906 Q186.6313,294.9688 185.8344,295.2969 Q184.7563,295.75 183.4594,295.75 Q181.9438,295.75 180.7406,295.125 Q179.7563,294.625 179.0688,293.5625 Q178.3813,292.4844 178.3813,291.2031 L178.3813,290.0469 Q178.3813,288.7188 178.9906,287.5781 Q179.6156,286.4219 180.7094,285.8125 Q181.8031,285.1875 183.0375,285.1875 Q183.7719,285.1875 184.4125,285.3594 Q185.0688,285.5156 185.6156,285.875 Z " fill="#000000"/><text fill="#000000" font-family="sans-serif" font-size="14" lengthAdjust="spacing" textLength="75" x="198.15" y="295.7285">Funcionario</text><line style="stroke:#181818;stroke-width:0.5;" x1="163" x2="281" y1="306" y2="306"/><rect fill="none" height="6" style="stroke:#C82930;stroke-width:1.0;" width="6" x="170" y="317.3047"/><text fill="#000000" font-family="sans-serif" font-size="14" lengthAdjust="spacing" textLength="78" x="182" y="324.5332">nome: string</text><rect fill="none" height="6" style="stroke:#C82930;stroke-width:1.0;" width="6" x="170" y="334.9141"/><text fill="#000000" font-family="sans-serif" font-size="14" lengthAdjust="spacing" textLength="94" x="182" y="342.1426">telefone: string</text><rect fill="none" height="6" style="stroke:#C82930;stroke-width:1.0;" width="6" x="170" y="352.5234"/><text fill="#000000" font-family="sans-serif" font-size="14" lengthAdjust="spacing" textLength="90" x="182" y="359.752">usuario: string</text><rect fill="none" height="6" style="stroke:#C82930;stroke-width:1.0;" width="6" x="170" y="370.1328"/><text fill="#000000" font-family="sans-serif" font-size="14" lengthAdjust="spacing" textLength="82" x="182" y="377.3613">senha: string</text><line style="stroke:#181818;stroke-width:0.5;" x1="163" x2="281" y1="384.4375" y2="384.4375"/></g><!--class Pedido--><g id="elem_Pedido"><rect codeLine="14" fill="#F1F1F1" height="188.875" id="Pedido" rx="2.5" ry="2.5" style="stroke:#181818;stroke-width:0.5;" width="177" x="133.5" y="7"/><ellipse cx="195.75" cy="23" fill="#ADD1B2" rx="11" ry="11" style="stroke:#181818;stroke-width:1.0;"/><path d="M198.5156,18.875 Q198.6719,18.6563 198.8594,18.5469 Q199.0469,18.4375 199.2656,18.4375 Q199.6406,18.4375 199.875,18.7031 Q200.1094,18.9531 200.1094,19.5625 L200.1094,21.0156 Q200.1094,21.625 199.875,21.8906 Q199.6406,22.1563 199.2656,22.1563 Q198.9219,22.1563 198.7188,21.9531 Q198.5156,21.7656 198.4063,21.25 Q198.3594,20.8906 198.1719,20.7031 Q197.8438,20.3281 197.2344,20.1094 Q196.625,19.8906 196,19.8906 Q195.2344,19.8906 194.5938,20.2188 Q193.9688,20.5469 193.4688,21.2969 Q192.9844,22.0469 192.9844,23.0781 L192.9844,24.1719 Q192.9844,25.4063 193.875,26.2344 Q194.7656,27.0469 196.3594,27.0469 Q197.2969,27.0469 197.9531,26.7969 Q198.3438,26.6406 198.7656,26.2031 Q199.0313,25.9375 199.1719,25.8594 Q199.3281,25.7813 199.5313,25.7813 Q199.8594,25.7813 200.1094,26.0469 Q200.375,26.2969 200.375,26.6406 Q200.375,26.9844 200.0313,27.3906 Q199.5313,27.9688 198.7344,28.2969 Q197.6563,28.75 196.3594,28.75 Q194.8438,28.75 193.6406,28.125 Q192.6563,27.625 191.9688,26.5625 Q191.2813,25.4844 191.2813,24.2031 L191.2813,23.0469 Q191.2813,21.7188 191.8906,20.5781 Q192.5156,19.4219 193.6094,18.8125 Q194.7031,18.1875 195.9375,18.1875 Q196.6719,18.1875 197.3125,18.3594 Q197.9688,18.5156 198.5156,18.875 Z " fill="#000000"/><text fill="#000000" font-family="sans-serif" font-size="14" lengthAdjust="spacing" textLength="44" x="216.25" y="28.7285">Pedido</text><line style="stroke:#181818;stroke-width:0.5;" x1="134.5" x2="309.5" y1="39" y2="39"/><rect fill="none" height="6" style="stroke:#C82930;stroke-width:1.0;" width="6" x="141.5" y="50.3047"/><text fill="#000000" font-family="sans-serif" font-size="14" lengthAdjust="spacing" textLength="127" x="153.5" y="57.5332">dataHora: DateTime</text><rect fill="none" height="6" style="stroke:#C82930;stroke-width:1.0;" width="6" x="141.5" y="67.9141"/><text fill="#000000" font-family="sans-serif" font-size="14" lengthAdjust="spacing" textLength="114" x="153.5" y="75.1426">valorTotal: double</text><rect fill="none" height="6" style="stroke:#C82930;stroke-width:1.0;" width="6" x="141.5" y="85.5234"/><text fill="#000000" font-family="sans-serif" font-size="14" lengthAdjust="spacing" textLength="151" x="153.5" y="92.752">formaPagamento: string</text><line style="stroke:#181818;stroke-width:0.5;" x1="134.5" x2="309.5" y1="99.8281" y2="99.8281"/><ellipse cx="144.5" cy="114.1328" fill="#84BE84" rx="3" ry="3" style="stroke:#038048;stroke-width:1.0;"/><text fill="#000000" font-family="sans-serif" font-size="14" lengthAdjust="spacing" textLength="138" x="153.5" y="118.3613">adicionarItemPedido()</text><ellipse cx="144.5" cy="131.7422" fill="#84BE84" rx="3" ry="3" style="stroke:#038048;stroke-width:1.0;"/><text fill="#000000" font-family="sans-serif" font-size="14" lengthAdjust="spacing" textLength="112" x="153.5" y="135.9707">adicionarCliente()</text><ellipse cx="144.5" cy="149.3516" fill="#84BE84" rx="3" ry="3" style="stroke:#038048;stroke-width:1.0;"/><text fill="#000000" font-family="sans-serif" font-size="14" lengthAdjust="spacing" textLength="124" x="153.5" y="153.5801">calcularValorTotal()</text><ellipse cx="144.5" cy="166.9609" fill="#84BE84" rx="3" ry="3" style="stroke:#038048;stroke-width:1.0;"/><text fill="#000000" font-family="sans-serif" font-size="14" lengthAdjust="spacing" textLength="108" x="153.5" y="171.1895">cancelarPedido()</text><ellipse cx="144.5" cy="184.5703" fill="#84BE84" rx="3" ry="3" style="stroke:#038048;stroke-width:1.0;"/><text fill="#000000" font-family="sans-serif" font-size="14" lengthAdjust="spacing" textLength="113" x="153.5" y="188.7988">confirmarPedido()</text></g><!--class ItemPedido--><g id="elem_ItemPedido"><rect codeLine="26" fill="#F1F1F1" height="100.8281" id="ItemPedido" rx="2.5" ry="2.5" style="stroke:#181818;stroke-width:0.5;" width="126" x="317" y="282.5"/><ellipse cx="342.8" cy="298.5" fill="#ADD1B2" rx="11" ry="11" style="stroke:#181818;stroke-width:1.0;"/><path d="M345.5656,294.375 Q345.7219,294.1563 345.9094,294.0469 Q346.0969,293.9375 346.3156,293.9375 Q346.6906,293.9375 346.925,294.2031 Q347.1594,294.4531 347.1594,295.0625 L347.1594,296.5156 Q347.1594,297.125 346.925,297.3906 Q346.6906,297.6563 346.3156,297.6563 Q345.9719,297.6563 345.7688,297.4531 Q345.5656,297.2656 345.4563,296.75 Q345.4094,296.3906 345.2219,296.2031 Q344.8938,295.8281 344.2844,295.6094 Q343.675,295.3906 343.05,295.3906 Q342.2844,295.3906 341.6438,295.7188 Q341.0188,296.0469 340.5188,296.7969 Q340.0344,297.5469 340.0344,298.5781 L340.0344,299.6719 Q340.0344,300.9063 340.925,301.7344 Q341.8156,302.5469 343.4094,302.5469 Q344.3469,302.5469 345.0031,302.2969 Q345.3938,302.1406 345.8156,301.7031 Q346.0813,301.4375 346.2219,301.3594 Q346.3781,301.2813 346.5813,301.2813 Q346.9094,301.2813 347.1594,301.5469 Q347.425,301.7969 347.425,302.1406 Q347.425,302.4844 347.0813,302.8906 Q346.5813,303.4688 345.7844,303.7969 Q344.7063,304.25 343.4094,304.25 Q341.8938,304.25 340.6906,303.625 Q339.7063,303.125 339.0188,302.0625 Q338.3313,300.9844 338.3313,299.7031 L338.3313,298.5469 Q338.3313,297.2188 338.9406,296.0781 Q339.5656,294.9219 340.6594,294.3125 Q341.7531,293.6875 342.9875,293.6875 Q343.7219,293.6875 344.3625,293.8594 Q345.0188,294.0156 345.5656,294.375 Z " fill="#000000"/><text fill="#000000" font-family="sans-serif" font-size="14" lengthAdjust="spacing" textLength="70" x="359.2" y="304.2285">ItemPedido</text><line style="stroke:#181818;stroke-width:0.5;" x1="318" x2="442" y1="314.5" y2="314.5"/><rect fill="none" height="6" style="stroke:#C82930;stroke-width:1.0;" width="6" x="325" y="325.8047"/><text fill="#000000" font-family="sans-serif" font-size="14" lengthAdjust="spacing" textLength="100" x="337" y="333.0332">servico: Servico</text><rect fill="none" height="6" style="stroke:#C82930;stroke-width:1.0;" width="6" x="325" y="343.4141"/><text fill="#000000" font-family="sans-serif" font-size="14" lengthAdjust="spacing" textLength="99" x="337" y="350.6426">peca: TipoPeca</text><rect fill="none" height="6" style="stroke:#C82930;stroke-width:1.0;" width="6" x="325" y="361.0234"/><text fill="#000000" font-family="sans-serif" font-size="14" lengthAdjust="spacing" textLength="82" x="337" y="368.252">valor: double</text><line style="stroke:#181818;stroke-width:0.5;" x1="318" x2="442" y1="375.3281" y2="375.3281"/></g><!--class Servico--><g id="elem_Servico"><rect codeLine="32" fill="#F1F1F1" height="118.4375" id="Servico" rx="2.5" ry="2.5" style="stroke:#181818;stroke-width:0.5;" width="155" x="211.5" y="471"/><ellipse cx="261.25" cy="487" fill="#EB937F" rx="11" ry="11" style="stroke:#181818;stroke-width:1.0;"/><path d="M260.1094,487.7969 L260.1094,490.2969 L264.4375,490.2969 L264.4375,489.375 Q264.4375,488.7656 264.6719,488.5 Q264.9219,488.2344 265.2969,488.2344 Q265.6719,488.2344 265.9063,488.5 Q266.1406,488.7656 266.1406,489.375 L266.1406,492 L258.1406,492 Q257.5156,492 257.25,491.7656 Q257,491.5313 257,491.1406 Q257,490.7656 257.2656,490.5313 Q257.5313,490.2969 258.1406,490.2969 L258.4063,490.2969 L258.4063,483.6406 L258.1406,483.6406 Q257.5156,483.6406 257.25,483.4063 Q257,483.1719 257,482.7813 Q257,482.4063 257.25,482.1719 Q257.5156,481.9375 258.1406,481.9375 L265.7656,481.9375 L265.7656,484.5313 Q265.7656,485.1406 265.5313,485.4063 Q265.3125,485.6563 264.9219,485.6563 Q264.5469,485.6563 264.3125,485.4063 Q264.0781,485.1406 264.0781,484.5313 L264.0781,483.6406 L260.1094,483.6406 L260.1094,486.0938 L261.5938,486.0938 Q261.5938,485.4375 261.7188,485.25 Q261.9844,484.8438 262.4531,484.8438 Q262.8281,484.8438 263.0625,485.1094 Q263.2969,485.3594 263.2969,485.9688 L263.2969,487.9375 Q263.2969,488.4844 263.1719,488.6719 Q262.9063,489.0625 262.4531,489.0625 Q261.9844,489.0625 261.7188,488.6563 Q261.5938,488.4688 261.5938,487.7969 L260.1094,487.7969 Z " fill="#000000"/><text fill="#000000" font-family="sans-serif" font-size="14" lengthAdjust="spacing" textLength="47" x="281.75" y="492.7285">Servico</text><line style="stroke:#181818;stroke-width:0.5;" x1="212.5" x2="365.5" y1="503" y2="503"/><text fill="#000000" font-family="sans-serif" font-size="14" lengthAdjust="spacing" textLength="45" x="217.5" y="521.5332">LAVAR</text><text fill="#000000" font-family="sans-serif" font-size="14" lengthAdjust="spacing" textLength="47" x="217.5" y="539.1426">SECAR</text><text fill="#000000" font-family="sans-serif" font-size="14" lengthAdjust="spacing" textLength="55" x="217.5" y="556.752">PASSAR</text><text fill="#000000" font-family="sans-serif" font-size="14" lengthAdjust="spacing" textLength="143" x="217.5" y="574.3613">PACOTE_COMPLETO</text><line style="stroke:#181818;stroke-width:0.5;" x1="212.5" x2="365.5" y1="581.4375" y2="581.4375"/></g><!--class TipoPeca--><g id="elem_TipoPeca"><rect codeLine="39" fill="#F1F1F1" height="153.6563" id="TipoPeca" rx="2.5" ry="2.5" style="stroke:#181818;stroke-width:0.5;" width="136" x="402" y="453"/><ellipse cx="436.8" cy="469" fill="#EB937F" rx="11" ry="11" style="stroke:#181818;stroke-width:1.0;"/><path d="M435.6594,469.7969 L435.6594,472.2969 L439.9875,472.2969 L439.9875,471.375 Q439.9875,470.7656 440.2219,470.5 Q440.4719,470.2344 440.8469,470.2344 Q441.2219,470.2344 441.4563,470.5 Q441.6906,470.7656 441.6906,471.375 L441.6906,474 L433.6906,474 Q433.0656,474 432.8,473.7656 Q432.55,473.5313 432.55,473.1406 Q432.55,472.7656 432.8156,472.5313 Q433.0813,472.2969 433.6906,472.2969 L433.9563,472.2969 L433.9563,465.6406 L433.6906,465.6406 Q433.0656,465.6406 432.8,465.4063 Q432.55,465.1719 432.55,464.7813 Q432.55,464.4063 432.8,464.1719 Q433.0656,463.9375 433.6906,463.9375 L441.3156,463.9375 L441.3156,466.5313 Q441.3156,467.1406 441.0813,467.4063 Q440.8625,467.6563 440.4719,467.6563 Q440.0969,467.6563 439.8625,467.4063 Q439.6281,467.1406 439.6281,466.5313 L439.6281,465.6406 L435.6594,465.6406 L435.6594,468.0938 L437.1438,468.0938 Q437.1438,467.4375 437.2688,467.25 Q437.5344,466.8438 438.0031,466.8438 Q438.3781,466.8438 438.6125,467.1094 Q438.8469,467.3594 438.8469,467.9688 L438.8469,469.9375 Q438.8469,470.4844 438.7219,470.6719 Q438.4563,471.0625 438.0031,471.0625 Q437.5344,471.0625 437.2688,470.6563 Q437.1438,470.4688 437.1438,469.7969 L435.6594,469.7969 Z " fill="#000000"/><text fill="#000000" font-family="sans-serif" font-size="14" lengthAdjust="spacing" textLength="60" x="455.2" y="474.7285">TipoPeca</text><line style="stroke:#181818;stroke-width:0.5;" x1="403" x2="537" y1="485" y2="485"/><text fill="#000000" font-family="sans-serif" font-size="14" lengthAdjust="spacing" textLength="114" x="408" y="503.5332">ROUPA_NORMAL</text><text fill="#000000" font-family="sans-serif" font-size="14" lengthAdjust="spacing" textLength="124" x="408" y="521.1426">ROUPA_DELICADA</text><text fill="#000000" font-family="sans-serif" font-size="14" lengthAdjust="spacing" textLength="100" x="408" y="538.752">ROUPA_INTIMA</text><text fill="#000000" font-family="sans-serif" font-size="14" lengthAdjust="spacing" textLength="55" x="408" y="556.3613">TOALHA</text><text fill="#000000" font-family="sans-serif" font-size="14" lengthAdjust="spacing" textLength="39" x="408" y="573.9707">CAMA</text><text fill="#000000" font-family="sans-serif" font-size="14" lengthAdjust="spacing" textLength="54" x="408" y="591.5801">TAPETE</text><line style="stroke:#181818;stroke-width:0.5;" x1="403" x2="537" y1="598.6563" y2="598.6563"/></g><!--reverse link Pedido to ItemPedido--><g id="link_Pedido_ItemPedido"><path codeLine="48" d="M293.2949,206.064 C313.6049,235.564 328.43,257.1 345.77,282.28 " fill="none" id="Pedido-backto-ItemPedido" style="stroke:#181818;stroke-width:1.0;"/><polygon fill="#181818" points="286.49,196.18,286.5978,203.3903,293.2949,206.064,293.1871,198.8537,286.49,196.18" style="stroke:#181818;stroke-width:1.0;"/><text fill="#000000" font-family="sans-serif" font-size="13" lengthAdjust="spacing" textLength="43" x="317" y="240.4951">contem</text><text fill="#000000" font-family="sans-serif" font-size="13" lengthAdjust="spacing" textLength="5" x="335.6048" y="271.5544">*</text></g><!--link Pedido to Funcionario--><g id="link_Pedido_Funcionario"><path codeLine="49" d="M222,196.18 C222,222.45 222,250.26 222,273.82 " fill="none" id="Pedido-Funcionario" style="stroke:#181818;stroke-width:1.0;"/><text fill="#000000" font-family="sans-serif" font-size="13" lengthAdjust="spacing" textLength="43" x="223" y="240.4951">registra</text></g><!--link Pedido to Cliente--><g id="link_Pedido_Cliente"><path codeLine="50" d="M158.73,196.18 C136.3,229.39 112.22,265.05 94.36,291.49 " fill="none" id="Pedido-Cliente" style="stroke:#181818;stroke-width:1.0;"/><text fill="#000000" font-family="sans-serif" font-size="13" lengthAdjust="spacing" textLength="17" x="137" y="240.4951">faz</text></g><!--link ItemPedido to Servico--><g id="link_ItemPedido_Servico"><path codeLine="51" d="M356.8,383.71 C344.43,410.23 329.13,443.01 316.2,470.72 " fill="none" id="ItemPedido-Servico" style="stroke:#181818;stroke-width:1.0;"/></g><!--link ItemPedido to TipoPeca--><g id="link_ItemPedido_TipoPeca"><path codeLine="52" d="M402.94,383.71 C412.63,404.7 424.13,429.61 434.84,452.83 " fill="none" id="ItemPedido-TipoPeca" style="stroke:#181818;stroke-width:1.0;"/></g><!--SRC=[bL91RiCW4Bpx5QYdDbK-u1joNCMI4wEOvXfjCKwHC4GOvz2eVoyEDgRfgJwjPtPdc0KceUzH9WLNbjyIvBurKhhZAUgj4UeyGPPBtcgrmDz9mkwpRuDYGYimGlzdtiD3Fuo33sZFrIVyTIAy4KqmQS32LXlNjm7BgUZuH5n1QaEr1PcYHWyVSYPQRJeWS8REXLqyx-mhWaRu78NbdRTwVddafaK5We5aWmHp39uHfHXtr8CKqweLxXmB7l8jnhUm27CLp1srziK4NpXpiQcuQEAgE7P8x4Iv6hfvq0kM-8WFzwhEiwaYkAv3cLKqFsNLZfGvhOB6REH53jKxmQTzTTZXCW8sULbaU8CZgDZJOkS1Mk5owyiCpnWcESqH6dryRBHQhz7JwYdQH3ekpFtD7QuXUd0fClmit3r2n4ztbA8Mlf95QQJcDVv6mo9_0000]--></g></svg>